<?xml version="1.0" encoding="UTF-8" standalone="no"?>
<svg
   xmlns:dc="http://purl.org/dc/elements/1.1/"
   xmlns:cc="http://creativecommons.org/ns#"
   xmlns:rdf="http://www.w3.org/1999/02/22-rdf-syntax-ns#"
   xmlns:svg="http://www.w3.org/2000/svg"
   xmlns="http://www.w3.org/2000/svg"
   xmlns:sodipodi="http://sodipodi.sourceforge.net/DTD/sodipodi-0.dtd"
   xmlns:inkscape="http://www.inkscape.org/namespaces/inkscape"
   version="1.1"
   id="Capa_1"
   x="0px"
   y="0px"
   viewBox="0 0 458.656 458.656"
   style="enable-background:new 0 0 458.656 458.656;"
   xml:space="preserve"
   sodipodi:docname="arrow1.svg"
   inkscape:version="1.0.2-2 (e86c870879, 2021-01-15)"><metadata
   id="metadata909"><rdf:RDF><cc:Work
       rdf:about=""><dc:format>image/svg+xml</dc:format><dc:type
         rdf:resource="http://purl.org/dc/dcmitype/StillImage" /><dc:title></dc:title></cc:Work></rdf:RDF></metadata><defs
   id="defs907" /><sodipodi:namedview
   pagecolor="#ffffff"
   bordercolor="#666666"
   borderopacity="1"
   objecttolerance="10"
   gridtolerance="10"
   guidetolerance="10"
   inkscape:pageopacity="0"
   inkscape:pageshadow="2"
   inkscape:window-width="1920"
   inkscape:window-height="1017"
   id="namedview905"
   showgrid="false"
   inkscape:zoom="1.8030943"
   inkscape:cx="229.328"
   inkscape:cy="229.328"
   inkscape:window-x="-8"
   inkscape:window-y="-8"
   inkscape:window-maximized="1"
   inkscape:current-layer="Capa_1" />
<path
   d="m 194.03169,208.61868 c -0.47784,-0.16885 -1.47214,-0.52016 -2.96608,-2.01406 -0.0547,-0.0547 -0.11666,-0.11666 -0.21208,-0.11666 -0.0645,0 -0.1257,0.031 -0.16367,0.0829 -0.0657,0.0898 -0.0374,0.17904 -0.005,0.28235 0.0565,0.17809 0.17421,0.54859 -0.008,0.86169 -0.11883,0.20375 -0.34966,0.36123 -0.68712,0.47035 -0.14532,-0.20474 -0.34761,-0.3298 -0.57457,-0.3298 -0.26576,0 -0.49758,0.17157 -0.64381,0.44168 h -6.75508 l -1.28565,-1.5001 c -0.19866,-0.23181 -0.54757,-0.25862 -0.7793,-0.06 -0.15298,0.1311 -0.21607,0.32763 -0.18456,0.51282 l -0.38808,-0.45282 c -0.19865,-0.23181 -0.54756,-0.25862 -0.7793,-0.06 -0.23177,0.19861 -0.25862,0.54752 -0.06,0.7793 l 0.068,0.0793 -0.43916,-0.3782 c -0.23126,-0.19909 -0.58029,-0.17315 -0.77946,0.0581 -0.1992,0.23126 -0.17319,0.58025 0.0581,0.77946 l 0.25097,0.21614 -1.13567,0.45973 c -0.17943,0.0726 -0.19882,0.20394 -0.19882,0.25704 0,0.0531 0.0194,0.18444 0.19878,0.25704 l 1.13567,0.45977 -0.25096,0.21614 c -0.23127,0.19921 -0.25732,0.54819 -0.0581,0.77946 0.10932,0.12696 0.26372,0.19202 0.41902,0.19202 0.12772,0 0.25606,-0.044 0.36044,-0.13391 l 0.43916,-0.3782 -0.068,0.0793 c -0.19866,0.23178 -0.17181,0.58069 0.06,0.7793 0.10423,0.0893 0.2321,0.13304 0.35941,0.13304 0.15575,0 0.31062,-0.0655 0.41989,-0.19305 l 0.38808,-0.45281 c -0.0315,0.18515 0.0316,0.38167 0.18456,0.51282 0.10422,0.0893 0.23209,0.13304 0.35941,0.13304 0.15574,0 0.31061,-0.0655 0.41989,-0.19305 l 1.28565,-1.50009 h 6.75512 c 0.14623,0.27007 0.37805,0.44168 0.64381,0.44168 0.22696,0 0.42925,-0.12506 0.57453,-0.3298 0.33746,0.10912 0.56833,0.2666 0.68716,0.47038 0.18259,0.31311 0.0649,0.68357 0.008,0.86166 -0.0328,0.10323 -0.0611,0.19241 0.004,0.28219 0.0379,0.0518 0.0989,0.0829 0.16336,0.0831 1.6e-4,0 2.5e-4,0 5e-4,0 0.0954,0 0.15736,-0.0619 0.21204,-0.11666 1.53334,-1.53329 2.51078,-1.86491 2.98049,-2.02429 0.22767,-0.0772 0.42427,-0.14393 0.42427,-0.35905 0,-0.21433 -0.1936,-0.28271 -0.43867,-0.36928 z"
   id="path872"
   style="fill:#ad873c;fill-opacity:1;stroke-width:1"
   inkscape:export-filename="F:\lamhouse\sakthisilks\object\arrow.png"
   inkscape:export-xdpi="96"
   inkscape:export-ydpi="96" />
<g
   id="g874">
</g>
<g
   id="g876">
</g>
<g
   id="g878">
</g>
<g
   id="g880">
</g>
<g
   id="g882">
</g>
<g
   id="g884">
</g>
<g
   id="g886">
</g>
<g
   id="g888">
</g>
<g
   id="g890">
</g>
<g
   id="g892">
</g>
<g
   id="g894">
</g>
<g
   id="g896">
</g>
<g
   id="g898">
</g>
<g
   id="g900">
</g>
<g
   id="g902">
</g>
</svg>
